<?xml version="1.0" standalone="no"?>
<!DOCTYPE svg PUBLIC "-//W3C//DTD SVG 20010904//EN"
 "http://www.w3.org/TR/2001/REC-SVG-20010904/DTD/svg10.dtd">
<svg version="1.0" xmlns="http://www.w3.org/2000/svg"
 width="32.000000pt" height="32.000000pt" viewBox="0 0 32.000000 32.000000"
 preserveAspectRatio="xMidYMid meet">

<g transform="translate(0.000000,32.000000) scale(0.100000,-0.100000)"
fill="#000000" stroke="none">
<path d="M27 293 c-11 -11 -8 -105 3 -98 5 3 10 24 10 46 l0 39 45 0 c25 0 45
5 45 10 0 11 -93 14 -103 3z"/>
<path d="M195 291 c3 -6 24 -11 46 -11 39 0 39 0 39 -39 0 -22 5 -43 11 -46 7
-5 9 11 7 47 l-3 53 -53 3 c-36 2 -52 0 -47 -7z"/>
<path d="M50 160 l0 -90 110 0 110 0 0 90 0 90 -110 0 -110 0 0 -90z m120 45
c0 -30 20 -33 27 -5 3 11 9 20 14 20 5 0 9 -9 9 -20 0 -11 7 -20 16 -20 8 0
12 -4 9 -10 -8 -13 -162 -13 -170 0 -3 6 1 10 9 10 9 0 16 9 16 20 0 11 4 20
9 20 5 0 11 -9 14 -20 7 -28 27 -25 27 5 0 14 5 25 10 25 6 0 10 -11 10 -25z
m-50 -85 c0 -11 -4 -20 -10 -20 -5 0 -10 9 -10 20 0 11 5 20 10 20 6 0 10 -9
10 -20z m50 -5 c0 -14 -4 -25 -10 -25 -5 0 -10 11 -10 25 0 14 5 25 10 25 6 0
10 -11 10 -25z m50 5 c0 -11 -4 -20 -10 -20 -5 0 -10 9 -10 20 0 11 5 20 10
20 6 0 10 -9 10 -20z"/>
<path d="M22 78 l3 -53 53 -3 c31 -2 52 1 52 7 0 6 -20 11 -45 11 l-45 0 0 39
c0 22 -5 43 -11 46 -7 5 -9 -11 -7 -47z"/>
<path d="M288 124 c-5 -4 -8 -25 -8 -46 0 -38 0 -38 -39 -38 -22 0 -43 -4 -46
-10 -4 -6 13 -10 45 -10 34 0 52 5 56 14 8 20 0 99 -8 90z"/>
</g>
</svg>
