<?xml version="1.0" standalone="no"?>
<!DOCTYPE svg PUBLIC "-//W3C//DTD SVG 20010904//EN"
 "http://www.w3.org/TR/2001/REC-SVG-20010904/DTD/svg10.dtd">
<svg version="1.0" xmlns="http://www.w3.org/2000/svg"
 width="24.000000pt" height="24.000000pt" viewBox="0 0 24.000000 24.000000"
 preserveAspectRatio="xMidYMid meet">

<g transform="translate(0.000000,24.000000) scale(0.100000,-0.100000)"
fill="#000000" stroke="none">
<path d="M27 213 c-11 -10 -8 -53 3 -53 6 0 10 9 10 20 0 13 7 20 20 20 11 0
20 5 20 10 0 11 -43 14 -53 3z"/>
<path d="M160 211 c0 -6 9 -11 20 -11 13 0 20 -7 20 -20 0 -11 5 -20 11 -20 6
0 9 12 7 28 -2 21 -9 28 -30 30 -16 2 -28 -1 -28 -7z"/>
<path d="M70 120 c0 -5 23 -10 50 -10 28 0 50 5 50 10 0 6 -22 10 -50 10 -27
0 -50 -4 -50 -10z"/>
<path d="M22 53 c2 -22 9 -29 31 -31 15 -2 27 1 27 7 0 6 -9 11 -20 11 -13 0
-20 7 -20 20 0 11 -5 20 -11 20 -6 0 -9 -12 -7 -27z"/>
<path d="M200 70 c0 -5 5 -10 10 -10 6 0 10 5 10 10 0 6 -4 10 -10 10 -5 0
-10 -4 -10 -10z"/>
<path d="M160 30 c0 -13 47 -13 55 0 4 6 -7 10 -24 10 -17 0 -31 -4 -31 -10z"/>
</g>
</svg>
